<?xml version="1.0" ?><!DOCTYPE svg  PUBLIC '-//W3C//DTD SVG 1.1//EN'  'http://www.w3.org/Graphics/SVG/1.1/DTD/svg11.dtd'><svg id="Lager_1" style="enable-background:new -169 292.9 256 256;" version="1.1" viewBox="-169 292.9 256 256" xml:space="preserve" xmlns="http://www.w3.org/2000/svg" xmlns:xlink="http://www.w3.org/1999/xlink"><style type="text/css">
	.st0{fill:#FFFFFF;}
	.st1{fill:#5F5B57;}
	.st2{fill:#D89E6F;}
	.st3{opacity:0.1;}
	.st4{fill:#E2A771;}
	.st5{fill:#F9D964;}
</style><g><g><path class="st0" d="M-147.9,484.7l105.1,60.7c1.1,0.6,2.5,0.6,3.6,0l105.1-60.7c1.1-0.6,1.8-1.8,1.8-3.1V360.2    c0-1.3-0.7-2.5-1.8-3.1l-105.1-60.7c-1.1-0.6-2.5-0.6-3.6,0l-105.1,60.7c-1.1,0.6-1.8,1.8-1.8,3.1v121.4    C-149.7,482.9-149,484.1-147.9,484.7z"/></g><path class="st1" d="M28.5,499.1l-32.6-5.3c0,0,0,0-0.1,0l-0.3-0.4c-38.4,5.4-72.5,0.3-73.3,0l-0.4,0.4l-32.5,5.3   c-1.6,0.3-3.2,2.1-4.7,4.5l72.4,41.8c1.1,0.6,2.5,0.6,3.6,0L33,503.6C31.7,501.2,30.1,499.4,28.5,499.1z"/><path class="st2" d="M-73.2,495.7c-0.9,0-1.9,0.1-2.9,0.1l28.4,35.1c3.6,4.4,9.8,4.4,13.4,0l28.4-35.2c-0.9,0-1.9-0.1-2.7-0.1   c-3.4-0.2-6.4-2.2-7.8-5.2c-1.8-3.9-3.4-8.2-3.4-12.6c0-19.3,29.5-34.9-20-35.4l0,0c-0.4,0-0.8,0-1.1,0c-0.4,0-0.7,0-1.1,0l0,0   c-49.5,0.5-20,16.1-20,35.4c0,4.4-1.6,8.7-3.4,12.6C-66.9,493.5-69.9,495.6-73.2,495.7z"/><g class="st3"><path d="M-19.6,475.4c0.6-4.6,2.6-9,4.6-13c-8.2,7.9-17.4,12.6-25.9,12.6s-17.8-4.9-26-12.9c2,4,4.1,8.5,4.7,13.2    c7,5.5,14.4,12.8,21.3,12.8C-34,488.1-26.6,480.9-19.6,475.4z"/></g><path class="st4" d="M6.8,409.3c0,35.9-26.5,67.9-47.8,67.6c-21.2-0.3-47.5-33.1-47.8-68.1C-89.2,372.9-71.7,351-41,351   S6.8,373.4,6.8,409.3z"/><path class="st5" d="M-46,347.1c1.7-0.1,3.3-0.1,5-0.1c1.6,0,3.3,0,5,0.1c36.8,2.6,53.5,50.2,50.2,67.9   c-2.2,11.9-13,54.3-16.1,63.7c-0.5,1.5-0.4,1.8-0.4-0.1c0-22.7,0.6-39.2-2.2-43.5c-0.1-0.2-0.2-0.3-0.3-0.5   c-1.7,6.5-5.3,8.9-8.8,13.9c-0.3,0.4-0.9,0.1-0.8-0.4c1.6-6.4,6-25.6,4.1-42.4c0-0.1-0.1-0.2-0.1-0.2c-4.6-5.4-1.7-11.6-0.5-14.2   c0.2-0.3-0.1-0.7-0.5-0.6c-8.3,2-40,10.8-49.8,30.3c-0.2,0.4-0.8,0.3-0.8-0.1c-0.3-1.3-0.7-3.6-0.9-6.5c0-0.4-0.6-0.6-0.8-0.2   c-8.9,13.8-7.8,29.4-7.4,34.6c0,0.4-0.5,0.6-0.7,0.2c-1.1-2-3.6-5.7-6.3-11.1c-0.2-0.4-0.8-0.3-0.9,0.2   c-0.8,19.9-1.1,46.2-1.1,59.8c0,1.9,0.1,1.6-0.4,0.1c-3.1-9.3-13.7-70.8-15.9-82.7C-99.5,397.3-82.8,349.7-46,347.1z"/></g></svg>