<?xml version="1.0" ?><!DOCTYPE svg  PUBLIC '-//W3C//DTD SVG 1.1//EN'  'http://www.w3.org/Graphics/SVG/1.1/DTD/svg11.dtd'><svg id="Lager_1" style="enable-background:new -169 292.9 256 256;" version="1.1" viewBox="-169 292.9 256 256" xml:space="preserve" xmlns="http://www.w3.org/2000/svg" xmlns:xlink="http://www.w3.org/1999/xlink"><style type="text/css">
	.st0{fill:#FFFFFF;}
	.st1{fill:#7C3E61;}
	.st2{fill:#CCB09A;}
	.st3{opacity:0.1;}
	.st4{fill:#E5C8B1;}
	.st5{fill:#D03D38;}
</style><g><g><path class="st0" d="M-147.9,484.7l105.1,60.7c1.1,0.6,2.5,0.6,3.6,0l105.1-60.7c1.1-0.6,1.8-1.8,1.8-3.1V360.2    c0-1.3-0.7-2.5-1.8-3.1l-105.1-60.7c-1.1-0.6-2.5-0.6-3.6,0l-105.1,60.7c-1.1,0.6-1.8,1.8-1.8,3.1v121.4    C-149.7,482.9-149,484.1-147.9,484.7z"/></g><g><rect class="st1" height="13.6" width="59.9" x="-70.9" y="490.8"/><path class="st2" d="M12,497.5c-3.3-0.9-13.8-1.5-20.6-1.8c-3.4-0.2-6.4-2.2-7.8-5.2c-1.8-3.9-3.4-8.2-3.4-12.6    c0-19.3,29.5-34.9-20-35.4l0,0c-0.4,0-0.8,0-1.1,0c-0.4,0-0.7,0-1.1,0l0,0c-49.5,0.5-20,16.1-20,35.4c0,4.4-1.6,8.7-3.4,12.6    c-1.4,3.1-4.4,5.1-7.8,5.2c-6.8,0.3-17.4,0.8-20.8,1.8c-6.8,1.9-11.7,5.4-15.3,9.5l66.5,38.4c1.1,0.6,2.5,0.6,3.6,0L27.3,507    C23.7,502.9,18.8,499.4,12,497.5z"/><g class="st3"><path d="M-19.6,475.4c0.6-4.6,2.6-9,4.6-13c-8.2,7.9-17.4,12.6-25.9,12.6s-17.8-4.9-26-12.9c2,4,4.1,8.5,4.7,13.2     c7,5.5,14.4,12.8,21.3,12.8C-34,488.1-26.6,480.9-19.6,475.4z"/></g><path class="st4" d="M6.8,409.3c0,35.9-26.5,67.9-47.8,67.6c-21.2-0.3-47.5-33.1-47.8-68.1C-89.2,372.9-71.7,351-41,351    S6.8,373.4,6.8,409.3z"/><path class="st1" d="M-6.9,492.4c-1.2-0.5-2.8-0.9-4.7-1.2l-23.7,37.2c-3,4.5-8,4.5-10.9,0L-70,491.2c-2.1,0.3-3.8,0.7-5.1,1.2    c-7.5,3-11.7,16.7-14.3,26.1l46.6,26.9c1.1,0.6,2.5,0.6,3.6,0l46.6-26.9C4.8,509.1,0.6,495.4-6.9,492.4z"/></g><path class="st5" d="M24.4,419.6c-10.2-9.3-2.6-21.5-4.6-41.2c-1.7-16.4-18-24.7-25-26.5c-0.5-0.1-0.4-0.8,0.1-0.9   c3.5-0.3,7.4,0.6,9.6,1.3c0.5,0.1,0.8-0.4,0.4-0.8c-20.7-19.8-40.2-10-42.7-8.6c-0.2,0.1-0.4,0.1-0.5-0.1   c-11.8-10.6-15.2-6.5-23.4-3.1c-6.9,2.8-13.7-0.3-15.7-1.5c-0.3-0.2-0.7,0.1-0.7,0.4c-0.2,4.7,3.2,8.7,4.7,10.3   c0.3,0.3,0.1,0.8-0.3,0.8c-24.2,0.6-31.2,19.9-33,27.1c-0.1,0.5,0.5,0.8,0.8,0.4c3-3.7,8.9-4.3,11.4-4.4c0.4,0,0.6,0.5,0.3,0.8   c-0.3,0.3-0.6,0.6-0.8,0.9l-0.1,0.1c-3.7,2-7,12.5-7.2,13.3v0.1c-2,19.7,5.5,22.5-4.6,31.8c-0.3,0.3-0.1,0.8,0.3,0.8   c1.7-0.1,4.5-0.8,7.3-1.7c0.3-0.1,0.5,0.1,0.6,0.3c0.3,1.1,0.5,1.9,0.6,2.5c0.9,4.9-1.9,12.3-3,15c-0.2,0.4,0.2,0.7,0.6,0.6   l4.7-2.1c0.3-0.1,0.7,0.1,0.6,0.5c-1.4,10.6,4.6,17.7,7.1,20.2c0.3,0.3,0.8,0,0.8-0.4c-0.8-3.7-0.7-6.3-0.5-7.8   c0.1-0.5,0.7-0.5,0.9-0.1c7.5,18.2,14.6,22.5,18.1,23.8c0.4,0.1,0.7-0.2,0.6-0.6l-2.5-6.5c-0.2-0.6,0.6-1.3,0.9-0.8   c2.9,4.2,7.4,6.6,9.2,7c0.5,0.1,0.7-0.5,0.4-0.8c-3.4-3-9.8-15.3-14.1-31c-5.3-19.6,7.5-32.3,23.3-37.1   c13.7-4.2,26.7-8.2,29.7-16.9c0.1-0.4,0.7-0.1,0.8,0.3c0.5,9.3,11.7,17,13.5,37.2c1.6,18.3-0.7,39.8-1.4,45   c-0.1,0.4,0.5,0.7,0.8,0.4c7.7-7.5,11.1-27.8,12-33.9c0.1-0.4,0.7-0.5,0.8-0.1c2,4,7,7.4,9.4,8.9c0.4,0.2,0.8-0.2,0.6-0.6   c-3.8-8.3-3.9-20.6-3.9-24.5c0-0.4,0.5-0.6,0.8-0.3c2.6,2.5,9.4,3.3,12.2,3.5C24.5,420.5,24.7,419.9,24.4,419.6z"/></g></svg>