<?xml version="1.0" ?><!DOCTYPE svg  PUBLIC '-//W3C//DTD SVG 1.1//EN'  'http://www.w3.org/Graphics/SVG/1.1/DTD/svg11.dtd'><svg id="Lager_1" style="enable-background:new -169 292.9 256 256;" version="1.1" viewBox="-169 292.9 256 256" xml:space="preserve" xmlns="http://www.w3.org/2000/svg" xmlns:xlink="http://www.w3.org/1999/xlink"><style type="text/css">
	.st0{fill:#FFFFFF;}
	.st1{fill:#B0AEAD;}
	.st2{fill:#E5C6AA;}
	.st3{opacity:0.1;enable-background:new    ;}
	.st4{fill:#2C2215;}
	.st5{fill:#F1F1F1;}
	.st6{fill:#E3E3E3;}
	.st7{fill:#EFD2B6;}
	.st8{fill:#664429;}
</style><g><g><path class="st0" d="M-147.9,484.7l105.1,60.7c1.1,0.6,2.5,0.6,3.6,0l105.1-60.7c1.1-0.6,1.8-1.8,1.8-3.1V360.2    c0-1.3-0.7-2.5-1.8-3.1l-105.1-60.7c-1.1-0.6-2.5-0.6-3.6,0l-105.1,60.7c-1.1,0.6-1.8,1.8-1.8,3.1v121.4    C-149.7,482.9-149,484.1-147.9,484.7z"/></g><g><polygon class="st1" points="-60.1,472.9 -68.2,476.6 -67.3,490.2 -58.2,484.7   "/><polygon class="st1" points="-21.9,472.9 -13.8,476.6 -14.7,490.2 -23.8,484.7   "/><path class="st2" d="M6.6,497.9c-3.3-0.9-8.5-1.5-15.3-1.8c-3.4-0.2-6.4-2.2-7.8-5.2c-1.8-3.9-3.4-8.2-3.4-12.6    c0-19.3,29.5-34.9-20-35.4l0,0c-0.4,0-0.8,0-1.1,0c-0.4,0-0.7,0-1.1,0l0,0c-49.5,0.5-20,16.1-20,35.4c0,4.4-1.6,8.7-3.4,12.6    c-1.4,3.1-4.4,5.1-7.8,5.2c-6.8,0.3-12,0.8-15.3,1.8c-7.8,2.2-13,2.5-16.6,7.3l62.8,36.2c1.1,0.6,2.5,0.6,3.6,0l62.4-36    C19.7,500.5,14.4,500.2,6.6,497.9z"/><path class="st3" d="M-19.9,476.7c0.4-4.5,2.2-8.8,4.2-12.7c-8.1,7.3-17,11.6-25.2,11.6c-8.5,0-17.7-4.7-26-12.5    c2,4,4.1,8.5,4.6,13.2c7,5.7,14.5,12.8,21.4,12.8C-34.1,489-26.8,482.2-19.9,476.7z"/><path class="st4" d="M36.1,501.1l-49.9-7.3l-26.3,31.8l-0.9,2.1l-0.9-2.1l-26.3-31.8l-49.9,7.3l-0.6,0.6l75.9,43.8    c1.1,0.6,2.5,0.6,3.6,0l75.9-43.8L36.1,501.1z"/><g><path class="st5" d="M-56.4,490.2l5.2,19.2c0.1,0.5,0.3,1,0.5,1.5l8.8,15.1c0.1,0.2-0.1,0.4-0.3,0.2l-29.7-32.3L-56.4,490.2z"/><path class="st5" d="M-25.6,490.2l-5.2,19.2c-0.1,0.5-0.3,1-0.5,1.5l-8.8,15.1c-0.1,0.2,0.1,0.4,0.3,0.2l29.7-32.3L-25.6,490.2z"/><polygon class="st6" points="-68.2,476.6 -55.5,490.2 -63.7,509.2 -74.6,493.8    "/><polygon class="st6" points="-13.8,476.6 -26.5,490.2 -18.3,509.2 -7.4,493.8    "/></g><path class="st7" d="M6.8,409.7c0,35.9-26.5,67.9-47.8,67.6c-21.2-0.3-47.5-33.1-47.8-68.1c-0.4-35.9,17.1-57.7,47.8-57.7    S6.8,373.8,6.8,409.7z"/><path class="st8" d="M-45.3,337.6c39.2-2.6,69.3,34.1,63.9,68.2c-4.4,27.9-17.3,46.4-20.5,52.3c-0.3,0.5-0.9,0.2-0.9-0.3    c1-12.3,5.2-71.4-77.3-75.1c-0.3,0-0.6,0.3-0.5,0.6c0.9,2.6,4.1,12.9-0.2,19.3c-2.9,4.2-8.1,16.2-5.1,37.8    c0.3,2.2-0.1,2.3-0.9,0.2c-3.6-9.5-9.9-24.1-12.1-35.1C-102.3,387.7-84.5,340.1-45.3,337.6z"/></g></g></svg>