<?xml version="1.0" ?><!DOCTYPE svg  PUBLIC '-//W3C//DTD SVG 1.1//EN'  'http://www.w3.org/Graphics/SVG/1.1/DTD/svg11.dtd'><svg id="Lager_1" style="enable-background:new -169 292.9 256 256;" version="1.1" viewBox="-169 292.9 256 256" xml:space="preserve" xmlns="http://www.w3.org/2000/svg" xmlns:xlink="http://www.w3.org/1999/xlink"><style type="text/css">
	.st0{fill:#FFFFFF;}
	.st1{fill:#B0AEAD;}
	.st2{fill:#E5C6AA;}
	.st3{opacity:0.1;}
	.st4{fill:#EFD2B6;}
	.st5{fill:#E3E3E3;}
	.st6{fill:#7C3E61;}
	.st7{fill:#F1F1F1;}
</style><g><g><path class="st0" d="M-147.9,484.7l105.1,60.7c1.1,0.6,2.5,0.6,3.6,0l105.1-60.7c1.1-0.6,1.8-1.8,1.8-3.1V360.2    c0-1.3-0.7-2.5-1.8-3.1l-105.1-60.7c-1.1-0.6-2.5-0.6-3.6,0l-105.1,60.7c-1.1,0.6-1.8,1.8-1.8,3.1v121.4    C-149.7,482.9-149,484.1-147.9,484.7z"/></g><g><polygon class="st1" points="-59.1,472.9 -67.3,476.6 -66.4,490.2 -57.3,484.7   "/><polygon class="st1" points="-22.9,472.9 -14.7,476.6 -15.6,490.2 -24.7,484.7   "/><path class="st2" d="M6.6,497.5c-3.3-0.9-8.5-1.5-15.3-1.8c-3.4-0.2-6.4-2.2-7.8-5.2c-1.8-3.9-3.4-8.2-3.4-12.6    c0-19.3,29.5-34.9-20-35.4l0,0c-0.4,0-0.8,0-1.1,0c-0.4,0-0.7,0-1.1,0l0,0c-49.5,0.5-20,16.1-20,35.4c0,4.4-1.6,8.7-3.4,12.6    c-1.4,3.1-4.4,5.1-7.8,5.2c-6.8,0.3-12,0.8-15.3,1.8c-8,2.2-13.3,6.6-17,11.7l62.8,36.3c1.1,0.6,2.5,0.6,3.6,0l62.8-36.3    C20,504.1,14.6,499.7,6.6,497.5z"/><g class="st3"><path d="M-19.6,475.4c0.6-4.6,2.6-9,4.6-13c-8.2,7.9-17.4,12.6-25.9,12.6s-17.8-4.9-26-12.9c2,4,4.1,8.5,4.7,13.2     c7,5.5,14.4,12.8,21.3,12.8C-34,488.1-26.6,480.9-19.6,475.4z"/></g><path class="st4" d="M6.8,409.3c0,35.9-26.5,67.9-47.8,67.6c-21.2-0.3-47.5-33.1-47.8-68.1C-89.2,372.9-71.7,351-41,351    S6.8,373.4,6.8,409.3z"/><path class="st5" d="M3.1,396c-1,10.9-6.9,16.5-8.8,18c-0.3,0.2-0.7,0.1-0.7-0.3c-3.3-19-13.1-30.5-16.8-34.3    c-0.3-0.3-0.9,0-0.8,0.4c5.6,20.5-3.1,35-4.7,37.5c-0.1,0.2-0.5,0.3-0.7,0.1c-10.5-8.4-21.4-29.9-24.8-37    c-0.2-0.5-0.9-0.3-0.9,0.3c1.5,11.6,8.3,24.1,11.1,28.9c0.3,0.4-0.3,0.9-0.7,0.6c-14.7-11.9-22.3-28.1-23.9-31.9    c-0.1-0.3-0.6-0.4-0.8,0l-8,13.3v0.1c-7.4,25.2-6.3,40.2-5.7,44.5c0.1,0.4-0.5,0.7-0.8,0.4c-16.1-15.5-17.4-31.7-17.1-38.8    c0-0.5-0.7-0.7-0.9-0.2c-2.4,5.9-5.2,8.7-6.6,9.9c-0.3,0.3-0.8,0-0.7-0.4c3.8-52.3,35.6-64.1,44.4-66.4c0.5-0.1,0.4-0.8-0.1-0.9    c-4.2-0.6-7.3,0.1-9.2,0.8c-0.4,0.2-0.8-0.4-0.5-0.7c10.3-10.9,21.2-5.3,23.2-4.1c0.2,0.1,0.4,0.1,0.6-0.1    c5.5-6.7,15.6-6,20.2-5.3c0.5,0.1,0.5,0.8,0,0.9c-2.3,0.6-3.9,1.6-4.7,2.3c-0.3,0.2-0.2,0.7,0.2,0.8c47,6.8,57.7,53.4,59.5,64.2    c0.1,0.5-0.6,0.7-0.8,0.3c-4.5-7.2-7.8-9.8-9.3-10.7c-0.3-0.2-0.7,0.1-0.7,0.4c2.5,25.8-6.5,39.8-10,44.2    c-0.3,0.4-0.9,0.1-0.8-0.4C7.9,414.2,3.1,396,3.1,396"/><g><path class="st6" d="M11.1,496.9l-24.8-3.1l-19.1,28.7l-7.3,13.6c-0.4,0.6-1.3,0.7-1.6,0l-8.3-13.6l-18.1-28.7l-25,3.1     c-7.2,0.9-13.2,4.5-17.3,9.5l67.6,39c1.1,0.6,2.5,0.6,3.6,0l67.6-39C24.3,501.3,18.2,497.7,11.1,496.9z"/><g><path class="st7" d="M-54.6,490.2l0.9,19.2c0.1,0.5,0.7,1,0.9,1.5l11.8,25.9c0.1,0.2-0.1,0.4-0.3,0.2L-71,496.2L-54.6,490.2z"/><path class="st7" d="M-27.4,490.2l-0.9,19.2c-0.1,0.5-0.7,1-0.9,1.5L-41,536.8c-0.1,0.2,0.1,0.4,0.3,0.2l29.7-40.8L-27.4,490.2z      "/><polygon class="st5" points="-67.3,476.6 -54.6,490.2 -64.6,509.2 -73.7,493.8     "/><polygon class="st5" points="-14.7,476.6 -27.4,490.2 -17.4,509.2 -8.3,493.8     "/></g></g></g></g></svg>