<?xml version="1.0" ?><!DOCTYPE svg  PUBLIC '-//W3C//DTD SVG 1.1//EN'  'http://www.w3.org/Graphics/SVG/1.1/DTD/svg11.dtd'><svg id="Lager_1" style="enable-background:new -169 292.9 256 256;" version="1.1" viewBox="-169 292.9 256 256" xml:space="preserve" xmlns="http://www.w3.org/2000/svg" xmlns:xlink="http://www.w3.org/1999/xlink"><style type="text/css">
	.st0{fill:#FFFFFF;}
	.st1{fill:#E5C6AA;}
	.st2{opacity:0.1;}
	.st3{fill:#EFD2B6;}
	.st4{fill:#F1F1F1;}
	.st5{fill:#824141;}
</style><g><g><path class="st0" d="M-147.9,484.7l105.1,60.7c1.1,0.6,2.5,0.6,3.6,0l105.1-60.7c1.1-0.6,1.8-1.8,1.8-3.1V360.2    c0-1.3-0.7-2.5-1.8-3.1l-105.1-60.7c-1.1-0.6-2.5-0.6-3.6,0l-105.1,60.7c-1.1,0.6-1.8,1.8-1.8,3.1v121.4    C-149.7,482.9-149,484.1-147.9,484.7z"/></g><g><path class="st1" d="M6.6,497.9c-3.3-0.9-8.5-1.5-15.3-1.8c-3.4-0.2-6.4-2.2-7.8-5.2c-1.8-3.9-3.4-8.2-3.4-12.6    c0-19.3,29.5-34.9-20-35.4l0,0c-0.4,0-0.8,0-1.1,0c-0.4,0-0.7,0-1.1,0l0,0c-49.5,0.5-20,16.1-20,35.4c0,4.4-1.6,8.7-3.4,12.6    c-1.4,3.1-4.4,5.1-7.8,5.2c-6.8,0.3-12,0.8-15.3,1.8c-7.8,2.2-13.1,6.4-16.7,11.3l62.6,36.1c1.1,0.6,2.5,0.6,3.6,0l62.6-36.1    C19.7,504.4,14.5,500.1,6.6,497.9z"/><g class="st2"><path d="M-19.6,475.9c0.6-4.6,2.6-9,4.6-13c-8.2,7.9-17.4,12.6-25.9,12.6s-17.8-4.9-26-12.9c2,4,4.1,8.5,4.7,13.2     c7,5.5,14.4,12.8,21.3,12.8C-34,488.6-26.6,481.3-19.6,475.9z"/></g><path class="st3" d="M6.8,409.7c0,35.9-26.5,67.9-47.8,67.6c-21.2-0.3-47.5-33.1-47.8-68.1c-0.4-35.9,17.1-57.7,47.8-57.7    S6.8,373.8,6.8,409.7z"/><path class="st4" d="M11.1,497.1c-1.9-0.5-4.3-0.9-7.2-1.2l-36.3,37.2c-4.5,4.5-12.2,4.5-16.7,0l-36.3-37.3    c-3.2,0.3-5.8,0.7-7.8,1.2c-7.4,1.9-12.7,5.5-16.6,9.6l67,38.7c1.1,0.6,2.5,0.6,3.6,0l66.9-38.6C23.9,502.6,18.6,499,11.1,497.1z"/><path class="st5" d="M-35,343.5c-1.1-0.1-3.1-0.1-5-0.1c-0.2,0-0.5,0-0.8,0c-0.1,0-0.2,0-0.2,0c-0.1,0-0.2,0-0.2,0    c-0.3,0-0.5,0-0.8,0c-1.8,0-3.9,0-5,0.1c-39.4,2.6-52.1,50.2-48.6,67.9c2.4,11.9,15.7,44.4,19,53.7c0.5,1.5,0.4,1.8,0.4-0.1    c0-22.7-5.8-40.8,0-56.5c2.7-7.2,2.9-8.4,2-11.1c-0.1-0.3,0.1-0.6,0.5-0.6c7.4,0.3,13.2,0.5,18.2,0.6c0.5,0,1-0.4,1-0.9    c0.1-5.1,1.6-10.9,1.7-15.3c0-0.5,1.9-0.5,1.9,0l0.2,15.5c0,0.5,0.5,0.8,0.9,0.8c3.2,0.1,4.6,0.2,8.7,0.4l0,0    c9.2-0.5,17.6-0.4,32.7-1.1c0.3,0,0.6,0.3,0.5,0.6c-1,2.8-0.7,4,2,11.1c5.8,15.6,0,33.7,0,56.5c0,1.9-0.1,1.6,0.4,0.1    c3.3-9.3,16.7-41.7,19-53.7C17,393.6,4.4,346-35,343.5z"/></g></g></svg>